<svg width="512" height="510" viewBox="0 0 512 510" fill="none" xmlns="http://www.w3.org/2000/svg">
<g clip-path="url(#clip0_1_91)">
<path fill-rule="evenodd" clip-rule="evenodd" d="M115.612 0H396.387C459.974 0 512 52.026 512 115.612V394.027C512 457.614 459.974 509.64 396.387 509.64H115.612C52.026 509.64 0 457.614 0 394.027V115.612C0 52.026 52.026 0 115.612 0Z" fill="white"/>
<path d="M440.898 139.167C436.897 137.206 435.175 140.943 432.836 142.84C432.035 143.452 431.357 144.247 430.682 144.981C424.834 151.227 418.001 155.33 409.075 154.84C396.027 154.106 384.883 158.208 375.035 168.188C372.942 155.881 365.987 148.53 355.4 143.818C349.86 141.369 344.259 138.918 340.38 133.591C337.672 129.796 336.933 125.57 335.579 121.406C334.718 118.897 333.854 116.324 330.961 115.894C327.822 115.404 326.589 118.036 325.36 120.243C320.435 129.245 318.527 139.164 318.713 149.205C319.145 171.802 328.685 189.802 347.645 202.602C349.799 204.072 350.352 205.541 349.677 207.684C348.384 212.094 346.845 216.379 345.491 220.789C344.629 223.606 343.334 224.218 340.319 222.994C329.917 218.648 320.928 212.216 312.987 204.441C299.506 191.397 287.319 177.007 272.114 165.739C268.595 163.137 264.982 160.665 261.28 158.33C245.768 143.267 263.312 130.896 267.374 129.428C271.621 127.896 268.852 122.631 255.123 122.692C241.396 122.753 228.838 127.345 212.835 133.469C210.495 134.389 208.034 135.062 205.509 135.611C190.982 132.855 175.901 132.243 160.142 134.018C130.471 137.323 106.774 151.347 89.3543 175.29C68.4263 204.075 63.5003 236.772 69.5333 270.88C75.8733 306.823 94.2163 336.584 122.409 359.854C151.648 383.977 185.32 395.797 223.729 393.531C247.058 392.185 273.036 389.063 302.336 364.261C309.723 367.934 317.478 369.405 330.344 370.507C340.255 371.427 349.796 370.017 357.183 368.488C368.756 366.039 367.956 355.322 363.769 353.364C329.854 337.567 337.299 343.996 330.529 338.791C347.764 318.401 373.742 297.214 383.898 228.569C384.698 223.121 384.019 219.692 383.898 215.282C383.837 212.59 384.451 211.548 387.53 211.241C396.024 210.26 404.272 207.936 411.844 203.77C433.819 191.768 442.684 172.051 444.777 148.415C445.084 144.803 444.716 141.067 440.898 139.17V139.167ZM249.4 351.89C216.528 326.052 200.586 317.538 194 317.906C187.845 318.274 188.952 325.316 190.306 329.908C191.721 334.44 193.57 337.562 196.154 341.542C197.939 344.176 199.171 348.093 194.37 351.035C183.783 357.585 165.377 348.83 164.514 348.4C143.093 335.786 125.18 319.131 112.56 296.353C100.373 274.429 93.2933 250.918 92.1253 225.811C91.8173 219.75 93.6033 217.604 99.6343 216.504C107.574 215.033 115.761 214.726 123.702 215.889C157.249 220.789 185.81 235.791 209.756 259.549C223.422 273.08 233.763 289.248 244.414 305.045C255.74 321.823 267.928 337.806 283.44 350.91C288.919 355.502 293.288 358.993 297.475 361.566C284.855 362.973 263.802 363.28 249.4 351.89ZM265.299 249.371C265.82 247.26 267.72 245.713 270.021 245.713C270.589 245.714 271.151 245.818 271.682 246.018C272.36 246.264 272.975 246.632 273.468 247.181C274.329 248.04 274.822 249.264 274.822 250.549C274.822 253.244 272.668 255.386 269.96 255.386C268.817 255.397 267.709 254.994 266.838 254.253C265.968 253.512 265.394 252.482 265.222 251.352C265.116 250.693 265.142 250.02 265.299 249.371ZM312.507 276.286C309.901 277.282 307.307 278.064 304.8 278.166C300.121 278.41 295.013 276.512 292.244 274.185C287.936 270.573 284.858 268.554 283.565 262.244C283.011 259.549 283.318 255.386 283.811 252.998C284.919 247.854 283.687 244.547 280.057 241.547C277.103 239.098 273.346 238.425 269.223 238.425C267.684 238.425 266.269 237.752 265.222 237.201C263.498 236.345 262.083 234.201 263.437 231.567C263.869 230.711 265.962 228.628 266.455 228.262C272.055 225.077 278.52 226.118 284.489 228.506C290.029 230.772 294.216 234.935 300.248 240.813C306.403 247.915 307.511 249.876 311.021 255.203C313.792 259.366 316.315 263.654 318.039 268.551C318.916 271.112 318.11 273.291 315.698 274.828C314.717 275.453 313.589 275.872 312.507 276.286Z" fill="#4D6BFE"/>
</g>
<defs>
<clipPath id="clip0_1_91">
<rect width="512" height="509.64" fill="white"/>
</clipPath>
</defs>
</svg>
