<svg width="512" height="510" viewBox="0 0 512 510" fill="none" xmlns="http://www.w3.org/2000/svg">
<g clip-path="url(#clip0_1_1608)">
<path fill-rule="evenodd" clip-rule="evenodd" d="M115.612 0H396.388C459.975 0 512 52.026 512 115.612V394.028C512 457.615 459.975 509.641 396.388 509.641H115.612C52.026 509.641 0 457.615 0 394.028V115.612C0 52.026 52.026 0 115.612 0Z" fill="black"/>
<path fill-rule="evenodd" clip-rule="evenodd" d="M213.235 306.019L392.211 126.017V126.186L443.906 74.423C442.982 75.743 442.046 77.028 441.121 78.313C401.84 132.477 382.661 158.962 398.051 225.235L397.961 225.134C408.571 270.244 397.217 320.271 360.563 356.97C314.347 403.276 240.396 413.581 179.5 371.898L221.962 352.223C260.825 367.501 303.354 360.793 333.909 330.193C364.475 299.593 371.341 255.034 355.974 217.941C353.054 210.916 344.304 209.146 338.182 213.678L213.235 306.019ZM187.449 328.456L187.416 328.49L68.0938 435.217C75.6588 424.788 85.0507 414.923 94.4207 405.068C120.849 377.265 147.074 349.709 131.075 310.766C109.653 258.654 122.123 197.589 161.799 157.868C203.042 116.614 263.779 106.207 314.505 127.11C325.735 131.282 335.521 137.224 343.143 142.749L300.784 162.333C261.344 145.77 216.155 157.034 188.577 184.646C151.279 221.954 143.737 286.649 187.449 328.456Z" fill="white"/>
</g>
<defs>
<clipPath id="clip0_1_1608">
<rect width="512" height="509.641" fill="white"/>
</clipPath>
</defs>
</svg>
