<svg width="108" height="92" viewBox="0 0 108 92" fill="none" xmlns="http://www.w3.org/2000/svg">
<g clip-path="url(#clip0_21_10443)">
<circle cx="54.0726" cy="32.0726" r="31.5112" fill="#96D9FA"/>
<mask id="mask0_21_10443" style="mask-type:alpha" maskUnits="userSpaceOnUse" x="22" y="0" width="64" height="64">
<circle cx="54.0726" cy="32.0726" r="31.5112" fill="#D9D9D9"/>
</mask>
<g mask="url(#mask0_21_10443)">
<path d="M26.2734 39.3105C23.5899 47.2552 27.9668 58.0062 30.4906 62.3885C31.7311 64.0193 34.965 72.8558 39.6965 73.8217C45.6109 75.0291 66.4789 73.2544 69.4575 73.8217C74.9397 74.8659 84.86 72.7481 84.86 51.8926C84.86 34.7454 77.0327 17.974 58.6579 16.8993C40.6866 15.8482 31.8455 22.8138 26.2734 39.3105Z" fill="#A86020"/>
<ellipse cx="45.881" cy="42.6625" rx="10.0451" ry="9.04062" transform="rotate(-7.90177 45.881 42.6625)" fill="#F9D9B0"/>
<ellipse cx="36.5298" cy="32.5586" rx="1.67419" ry="2.00903" transform="rotate(4.45339 36.5298 32.5586)" fill="white"/>
<ellipse cx="36.4935" cy="33.0246" rx="1.67419" ry="1.54163" transform="rotate(4.45339 36.4935 33.0246)" fill="#3D1E08"/>
<path d="M46.9116 37.6004C46.7941 39.1099 44.1851 41.058 41.546 40.8525C38.907 40.6469 37.234 38.4085 37.3549 36.8561C37.5601 34.2226 39.775 33.419 42.414 33.6245C45.3607 34.2382 47.0667 35.6101 46.9116 37.6004Z" fill="#3D1E08"/>
<ellipse cx="57.8215" cy="38.1036" rx="1.67419" ry="2.00903" transform="rotate(19.9202 57.8215 38.1036)" fill="white"/>
<ellipse cx="57.6622" cy="38.543" rx="1.67419" ry="1.54163" transform="rotate(19.9202 57.6622 38.543)" fill="#3D1E08"/>
<path d="M52.3564 42.792C53.2752 46.1364 50.9726 49.6848 47.2134 50.7176C43.4542 51.7504 39.6618 49.8766 38.743 46.5322C37.8241 43.1879 40.1377 46.3965 45.3278 44.8547C50.5179 43.313 51.4375 39.4477 52.3564 42.792Z" fill="#3D1E08"/>
<path d="M50.3838 46.0629C52.838 46.0629 49.501 48.9978 48.5848 49.448C47.5798 49.946 44.426 50.7777 45.481 48.8653C46.1417 47.6628 48.9513 46.0629 50.3783 46.0629H50.3838Z" fill="#EF8D73"/>
<ellipse cx="38.1766" cy="20.7957" rx="6.08601" ry="7.23547" transform="rotate(-7.90177 38.1766 20.7957)" fill="#A86020"/>
<ellipse cx="72.552" cy="21.7435" rx="6.08601" ry="7.23547" transform="rotate(33.5028 72.552 21.7435)" fill="#A86020"/>
</g>
<path d="M54.0721 1.5614C70.9229 1.5614 84.5836 15.2215 84.5839 32.0721C84.5839 48.923 70.923 62.5839 54.0721 62.5839C37.2215 62.5836 23.5614 48.9229 23.5614 32.0721C23.5616 15.2216 37.2216 1.56163 54.0721 1.5614Z" stroke="white" stroke-width="2"/>
</g>
<path d="M0.12 75.85V73.08H11.17V75.85H6.54L7.26 75.13V86.5H4.06V75.13L4.78 75.85H0.12ZM19.4991 86.5V80.76C19.4991 80.24 19.3724 79.8567 19.1191 79.61C18.8657 79.3567 18.5591 79.23 18.1991 79.23C17.8324 79.23 17.4957 79.3333 17.1891 79.54C16.8824 79.7467 16.6357 80.08 16.4491 80.54C16.2691 80.9933 16.1791 81.5967 16.1791 82.35H15.2091C15.2091 80.9367 15.3757 79.7867 15.7091 78.9C16.0491 78.0133 16.5091 77.3633 17.0891 76.95C17.6757 76.5367 18.3391 76.33 19.0791 76.33C19.9257 76.33 20.6157 76.52 21.1491 76.9C21.6891 77.28 22.0857 77.8033 22.3391 78.47C22.5924 79.1367 22.7191 79.9 22.7191 80.76V86.5H19.4991ZM12.9791 86.5V72.7H16.1791V86.5H12.9791ZM25.8502 86.5V76.59H29.0502V86.5H25.8502ZM28.3702 82.3C28.3702 80.96 28.5402 79.86 28.8802 79C29.2202 78.14 29.6502 77.5033 30.1702 77.09C30.6902 76.6767 31.2202 76.47 31.7602 76.47C31.8668 76.47 31.9735 76.4767 32.0802 76.49C32.1868 76.4967 32.2868 76.51 32.3802 76.53L32.4102 79.75C32.2435 79.73 32.0735 79.7167 31.9002 79.71C31.7268 79.6967 31.5635 79.69 31.4102 79.69C30.9435 79.69 30.5302 79.7767 30.1702 79.95C29.8168 80.1233 29.5402 80.4 29.3402 80.78C29.1468 81.16 29.0502 81.6667 29.0502 82.3H28.3702ZM38.2863 86.82C37.4596 86.82 36.6829 86.6067 35.9563 86.18C35.2296 85.7533 34.6396 85.1433 34.1863 84.35C33.7396 83.5567 33.5163 82.6167 33.5163 81.53C33.5163 80.4433 33.7396 79.5133 34.1863 78.74C34.6329 77.96 35.2196 77.3633 35.9463 76.95C36.6729 76.5367 37.4529 76.33 38.2863 76.33C39.1129 76.33 39.8329 76.4967 40.4463 76.83C41.0596 77.1567 41.5529 77.6 41.9263 78.16C42.3063 78.72 42.5529 79.3533 42.6663 80.06C42.7863 80.76 42.7629 81.4833 42.5963 82.23H36.0463V80.61H40.2563L39.7963 80.91C39.8163 80.6767 39.8063 80.44 39.7663 80.2C39.7329 79.96 39.6629 79.74 39.5563 79.54C39.4496 79.3333 39.2963 79.17 39.0963 79.05C38.9029 78.9233 38.6529 78.86 38.3463 78.86C38.0063 78.86 37.7096 78.9433 37.4563 79.11C37.2096 79.27 37.0163 79.5067 36.8763 79.82C36.7429 80.1267 36.6763 80.5033 36.6763 80.95V82.21C36.6763 82.63 36.7363 82.9933 36.8563 83.3C36.9763 83.6067 37.1529 83.8467 37.3863 84.02C37.6263 84.1867 37.9263 84.27 38.2863 84.27C38.5796 84.27 38.8363 84.21 39.0563 84.09C39.2763 83.97 39.4296 83.78 39.5163 83.52H42.6963C42.5963 84.1333 42.3496 84.69 41.9563 85.19C41.5696 85.69 41.0629 86.0867 40.4363 86.38C39.8163 86.6733 39.0996 86.82 38.2863 86.82ZM51.7633 86.5L51.3533 83.87V80.18C51.3533 79.6867 51.2633 79.3033 51.0833 79.03C50.9033 78.7567 50.5199 78.62 49.9333 78.62C49.5866 78.62 49.3033 78.6733 49.0833 78.78C48.8699 78.88 48.7099 79.0167 48.6033 79.19C48.5033 79.3567 48.4533 79.54 48.4533 79.74H44.9933C44.9933 78.9667 45.1766 78.33 45.5433 77.83C45.9099 77.3233 46.4599 76.9467 47.1933 76.7C47.9266 76.4533 48.8399 76.33 49.9333 76.33C50.8866 76.33 51.7066 76.4767 52.3933 76.77C53.0866 77.0633 53.6199 77.5033 53.9933 78.09C54.3666 78.6767 54.5533 79.4133 54.5533 80.3V86.5H51.7633ZM48.6633 86.82C47.7833 86.82 47.0399 86.6733 46.4333 86.38C45.8333 86.08 45.3799 85.6767 45.0733 85.17C44.7666 84.6633 44.6133 84.1033 44.6133 83.49C44.6133 82.91 44.7733 82.41 45.0933 81.99C45.4133 81.5633 45.8866 81.2333 46.5133 81C47.1466 80.7667 47.9233 80.65 48.8433 80.65C49.4033 80.65 49.8966 80.68 50.3233 80.74C50.7566 80.8 51.1999 80.8733 51.6533 80.96V82.76C51.3199 82.6867 50.9733 82.63 50.6133 82.59C50.2599 82.55 49.9133 82.53 49.5733 82.53C49.0999 82.53 48.7233 82.6067 48.4433 82.76C48.1699 82.9067 48.0333 83.15 48.0333 83.49C48.0333 83.7367 48.1566 83.9533 48.4033 84.14C48.6499 84.32 49.0399 84.41 49.5733 84.41C50.0266 84.41 50.3833 84.32 50.6433 84.14C50.9033 83.96 51.0866 83.7333 51.1933 83.46C51.2999 83.1867 51.3533 82.9167 51.3533 82.65H52.1033C52.1033 83.41 51.9833 84.1067 51.7433 84.74C51.5033 85.3733 51.1299 85.88 50.6233 86.26C50.1166 86.6333 49.4633 86.82 48.6633 86.82ZM61.4752 86.82C60.6218 86.82 59.8452 86.6 59.1452 86.16C58.4518 85.7133 57.9018 85.0933 57.4952 84.3C57.0885 83.5 56.8852 82.5733 56.8852 81.52C56.8852 80.48 57.0785 79.5733 57.4652 78.8C57.8518 78.02 58.3752 77.4133 59.0352 76.98C59.6952 76.5467 60.4352 76.33 61.2552 76.33C61.9952 76.33 62.6252 76.5067 63.1452 76.86C63.6652 77.2067 64.0585 77.7333 64.3252 78.44C64.5985 79.14 64.7352 80.02 64.7352 81.08H63.8452C63.8452 80.7067 63.7618 80.3833 63.5952 80.11C63.4352 79.83 63.2218 79.6133 62.9552 79.46C62.6885 79.3067 62.3918 79.23 62.0652 79.23C61.6452 79.23 61.2852 79.33 60.9852 79.53C60.6918 79.73 60.4685 80.0033 60.3152 80.35C60.1618 80.6967 60.0852 81.0867 60.0852 81.52C60.0852 81.9733 60.1618 82.38 60.3152 82.74C60.4752 83.1 60.7018 83.3833 60.9952 83.59C61.2885 83.7967 61.6318 83.9 62.0252 83.9C62.3385 83.9 62.6318 83.8133 62.9052 83.64C63.1852 83.46 63.4118 83.2233 63.5852 82.93C63.7585 82.6367 63.8452 82.3167 63.8452 81.97H64.7352C64.7352 83.0833 64.5818 84 64.2752 84.72C63.9752 85.4333 63.5752 85.9633 63.0752 86.31C62.5818 86.65 62.0485 86.82 61.4752 86.82ZM64.4752 86.5L63.8452 83.93V72.7H67.0852V86.5H64.4752ZM75.5595 86.82C74.3862 86.82 73.3529 86.5567 72.4595 86.03C71.5729 85.5033 70.8795 84.72 70.3795 83.68C69.8795 82.64 69.6295 81.35 69.6295 79.81C69.6295 78.2633 69.8762 76.97 70.3695 75.93C70.8695 74.89 71.5662 74.1067 72.4595 73.58C73.3529 73.0467 74.3862 72.78 75.5595 72.78C77.2529 72.78 78.5429 73.18 79.4295 73.98C80.3162 74.78 80.8429 75.8167 81.0095 77.09L77.6095 77.68C77.4562 77.1067 77.2129 76.6333 76.8795 76.26C76.5529 75.88 76.1129 75.69 75.5595 75.69C75.0662 75.69 74.6295 75.84 74.2495 76.14C73.8762 76.4333 73.5862 76.8833 73.3795 77.49C73.1729 78.0967 73.0695 78.87 73.0695 79.81C73.0695 80.73 73.1762 81.4933 73.3895 82.1C73.6029 82.7 73.8962 83.1467 74.2695 83.44C74.6495 83.7333 75.0795 83.88 75.5595 83.88C76.2462 83.88 76.7595 83.7 77.0995 83.34C77.4395 82.9733 77.6095 82.53 77.6095 82.01H80.9895C80.9895 83.0433 80.7795 83.92 80.3595 84.64C79.9462 85.3533 79.3362 85.8967 78.5295 86.27C77.7229 86.6367 76.7329 86.82 75.5595 86.82ZM89.985 76.59H93.185V86.5H89.985V76.59ZM83.455 76.59H86.655V82.55C86.655 83.0033 86.7683 83.34 86.995 83.56C87.2283 83.7733 87.525 83.88 87.885 83.88C88.2117 83.88 88.535 83.8 88.855 83.64C89.1817 83.48 89.4517 83.2067 89.665 82.82C89.8783 82.4333 89.985 81.8967 89.985 81.21H90.685C90.685 82.5167 90.535 83.5733 90.235 84.38C89.935 85.18 89.525 85.7633 89.005 86.13C88.4917 86.4967 87.9083 86.68 87.255 86.68C86.595 86.68 85.975 86.5667 85.395 86.34C84.815 86.1133 84.345 85.7267 83.985 85.18C83.6317 84.6333 83.455 83.88 83.455 82.92V76.59ZM102.123 86.82C101.557 86.82 101.027 86.65 100.533 86.31C100.047 85.9633 99.6533 85.4333 99.3533 84.72C99.0599 84 98.9133 83.0833 98.9133 81.97H99.7533C99.7533 82.3167 99.8433 82.6367 100.023 82.93C100.21 83.2233 100.443 83.46 100.723 83.64C101.01 83.8133 101.3 83.9 101.593 83.9C102 83.9 102.347 83.7967 102.633 83.59C102.927 83.3833 103.153 83.1 103.313 82.74C103.473 82.38 103.553 81.9733 103.553 81.52C103.553 81.0867 103.473 80.6967 103.313 80.35C103.16 80.0033 102.937 79.73 102.643 79.53C102.35 79.33 101.993 79.23 101.573 79.23C101.247 79.23 100.943 79.3067 100.663 79.46C100.39 79.6133 100.17 79.83 100.003 80.11C99.8366 80.3833 99.7533 80.7067 99.7533 81.08H98.9133C98.9133 80.02 99.0466 79.14 99.3133 78.44C99.5866 77.7333 99.9799 77.2067 100.493 76.86C101.013 76.5067 101.643 76.33 102.383 76.33C103.21 76.33 103.95 76.5467 104.603 76.98C105.263 77.4133 105.787 78.02 106.173 78.8C106.56 79.5733 106.753 80.48 106.753 81.52C106.753 82.5733 106.547 83.5 106.133 84.3C105.727 85.0933 105.173 85.7133 104.473 86.16C103.78 86.6 102.997 86.82 102.123 86.82ZM96.5533 86.5V72.7H99.7533V83.93L98.5533 86.5H96.5533Z" fill="#623310"/>
<defs>
<clipPath id="clip0_21_10443">
<rect width="64" height="64" fill="white" transform="translate(22)"/>
</clipPath>
</defs>
</svg>
