<svg width="64" height="64" viewBox="0 0 64 64" fill="none" xmlns="http://www.w3.org/2000/svg">
<circle cx="32" cy="32" r="32" fill="white"/>
<circle cx="32" cy="32" r="28" fill="#96D9FA"/>
<mask id="mask0_646_2269" style="mask-type:alpha" maskUnits="userSpaceOnUse" x="4" y="4" width="56" height="56">
<circle cx="32" cy="32" r="28" fill="#96D9FA"/>
</mask>
<g mask="url(#mask0_646_2269)">
<ellipse cx="18.0807" cy="18.9297" rx="5.26947" ry="6.26471" transform="rotate(-7.90177 18.0807 18.9297)" fill="#A5662B"/>
<ellipse cx="47.0132" cy="20.7502" rx="5.26947" ry="6.26471" transform="rotate(33.5028 47.0132 20.7502)" fill="#A5662B"/>
<rect x="8" y="15" width="48" height="67" rx="24" fill="#A5662B"/>
<ellipse cx="26.2676" cy="36.4608" rx="8.69741" ry="7.82767" transform="rotate(-7.90177 26.2676 36.4608)" fill="#F6D0A1"/>
<ellipse cx="18.171" cy="27.7125" rx="1.44957" ry="1.73948" transform="rotate(4.45339 18.171 27.7125)" fill="white"/>
<ellipse cx="18.1394" cy="28.116" rx="1.44957" ry="1.33479" transform="rotate(4.45339 18.1394 28.116)" fill="#2A1210"/>
<path d="M27.1599 32.0776C27.0581 33.3846 24.7991 35.0713 22.5142 34.8933C20.2292 34.7153 18.7807 32.7772 18.8854 31.4331C19.063 29.1529 20.9807 28.4571 23.2657 28.6351C25.817 29.1664 27.2941 30.3543 27.1599 32.0776Z" fill="#2A1210"/>
<ellipse cx="36.6061" cy="32.5134" rx="1.44957" ry="1.73948" transform="rotate(19.9202 36.6061 32.5134)" fill="white"/>
<ellipse cx="36.4681" cy="32.8939" rx="1.44957" ry="1.33479" transform="rotate(19.9202 36.4681 32.8939)" fill="#2A1210"/>
<path d="M30.7239 36.8102C31.4543 39.4686 29.624 42.2891 26.6359 43.1101C23.6478 43.931 20.6334 42.4416 19.903 39.7832C19.1726 37.1249 21.0117 39.6753 25.1371 38.4498C29.2626 37.2244 29.9935 34.1519 30.7239 36.8102Z" fill="#2A1210"/>
<path d="M29.1561 39.4102C31.1069 39.4102 28.4544 41.743 27.7261 42.101C26.9273 42.4968 24.4204 43.1579 25.259 41.6378C25.7842 40.6819 28.0174 39.4102 29.1517 39.4102H29.1561Z" fill="#F87B51"/>
</g>
</svg>
