<svg width="64" height="64" viewBox="0 0 64 64" fill="none" xmlns="http://www.w3.org/2000/svg">
<circle cx="32" cy="32" r="32" fill="white"/>
<circle cx="32" cy="32" r="28" fill="#96D9FA"/>
<mask id="mask0_646_2315" style="mask-type:alpha" maskUnits="userSpaceOnUse" x="4" y="4" width="56" height="56">
<circle cx="32" cy="32" r="28" fill="#96D9FA"/>
</mask>
<g mask="url(#mask0_646_2315)">
<ellipse cx="18.0807" cy="18.9297" rx="5.26947" ry="6.26471" transform="rotate(-7.90177 18.0807 18.9297)" fill="#A5662B"/>
<ellipse cx="47.0132" cy="20.7502" rx="5.26947" ry="6.26471" transform="rotate(33.5028 47.0132 20.7502)" fill="#A5662B"/>
<rect x="8" y="15" width="48" height="67" rx="24" fill="#A5662B"/>
<path d="M38.5648 31.601C38.4902 32.5588 37.7827 33.2849 36.9845 33.2227C36.1864 33.1605 35.5998 32.3337 35.6744 31.3759C35.7142 30.8652 36.484 30.8033 37.2821 30.8655C38.0803 30.9276 38.5911 31.263 38.5648 31.601Z" fill="#2A1210"/>
<path d="M37.3274 33.1287L38.0304 33.9438C38.1694 34.1049 38.2641 34.3102 38.3025 34.5336C38.3409 34.7571 38.3213 34.9888 38.2461 35.1994C38.1709 35.4099 38.0435 35.5899 37.8801 35.7165C37.7167 35.8432 37.5246 35.9107 37.3281 35.9107C37.1315 35.9107 36.9394 35.8432 36.776 35.7165C36.6126 35.5899 36.4852 35.4099 36.41 35.1994C36.3349 34.9888 36.3152 34.7571 36.3536 34.5336C36.392 34.3102 36.4867 34.1049 36.6257 33.9438L37.3274 33.1287Z" fill="#86D6FE"/>
<path d="M35.3961 35.7401C35.9904 40.0221 32.6152 44.0288 27.8574 44.6891C23.0995 45.3495 18.7607 42.4135 18.1664 38.1314C17.5721 33.8494 21.0444 30.8084 25.8023 30.148C30.6686 30.148 34.8018 31.458 35.3961 35.7401Z" fill="#F6D0A1"/>
<path d="M20.1298 28.6975C20.0552 29.6553 19.3476 30.3813 18.5495 30.3192C17.7513 30.257 17.1648 29.4302 17.2394 28.4724C17.2791 27.9617 18.0489 27.8998 18.8471 27.9619C19.6452 28.0241 20.1561 28.3595 20.1298 28.6975Z" fill="#2A1210"/>
<mask id="mask1_646_2315" style="mask-type:alpha" maskUnits="userSpaceOnUse" x="35" y="30" width="4" height="4">
<path d="M38.5648 31.601C38.4902 32.5588 37.7827 33.2849 36.9845 33.2227C36.1864 33.1605 35.5998 32.3337 35.6744 31.3759C35.7142 30.8652 36.484 30.8033 37.2821 30.8654C38.0803 30.9276 38.5911 31.263 38.5648 31.601Z" fill="#2A1210"/>
</mask>
<g mask="url(#mask1_646_2315)">
<path d="M37.1292 32.9299C37.8688 32.9299 38.4284 32.5285 38.4283 32.5296C38.4283 32.5307 38.4275 32.4844 38.518 32.4828C38.6085 32.4812 38.6094 32.5272 38.5205 32.62C38.3938 32.7522 38.5029 33.1281 37.5814 33.2221C36.66 33.3162 36.2062 33.0559 35.8074 32.8509C35.8074 32.8509 35.6558 32.7919 35.7152 32.7604C35.7747 32.7289 35.8313 32.7419 35.8963 32.7573C36.0782 32.8002 36.1356 32.9299 37.1292 32.9299Z" fill="#86D6FE"/>
</g>
<path d="M27.2761 34.9373C27.1743 36.2442 24.9153 37.9309 22.6304 37.753C20.3455 37.575 18.8969 35.6369 19.0016 34.2928C19.1792 32.0126 21.0969 31.3168 23.3819 31.4948C25.9333 32.0261 27.4103 33.214 27.2761 34.9373Z" fill="#2A1210"/>
<path fill-rule="evenodd" clip-rule="evenodd" d="M31.4849 40.6499C31.257 40.8905 30.8772 40.9009 30.6366 40.6729C29.7959 39.8767 26.5686 38.6094 21.4213 42.3947C21.1543 42.5911 20.7787 42.5338 20.5824 42.2668C20.386 41.9998 20.4433 41.6242 20.7103 41.4278C26.1468 37.4299 30.0569 38.4708 31.4619 39.8016C31.7025 40.0295 31.7129 40.4093 31.4849 40.6499Z" fill="black"/>
<path fill-rule="evenodd" clip-rule="evenodd" d="M21.7308 23.6432C21.6403 23.7388 21.4894 23.7429 21.3938 23.6524C21.0599 23.3361 19.7782 22.8328 17.7338 24.3362C17.6278 24.4142 17.4786 24.3915 17.4006 24.2854C17.3226 24.1794 17.3454 24.0302 17.4514 23.9522C19.6106 22.3643 21.1636 22.7778 21.7216 23.3063C21.8172 23.3968 21.8213 23.5477 21.7308 23.6432Z" fill="black"/>
<path fill-rule="evenodd" clip-rule="evenodd" d="M39.0319 25.6613C38.9025 25.6852 38.7781 25.5997 38.7542 25.4702C38.6706 25.018 37.9312 23.8563 35.3936 23.8673C35.262 23.8678 35.1548 23.7616 35.1542 23.63C35.1537 23.4983 35.2599 23.3912 35.3915 23.3906C38.0717 23.3791 39.0833 24.6278 39.223 25.3836C39.2469 25.5131 39.1613 25.6374 39.0319 25.6613Z" fill="black"/>
</g>
</svg>
