<svg width="72" height="72" viewBox="0 0 72 72" fill="none" xmlns="http://www.w3.org/2000/svg">
<g filter="url(#filter0_d_646_1659)">
<circle cx="36" cy="32" r="32" fill="white"/>
<circle cx="36" cy="32" r="28" fill="#96D9FA"/>
<mask id="mask0_646_1659" style="mask-type:alpha" maskUnits="userSpaceOnUse" x="8" y="4" width="56" height="56">
<circle cx="36" cy="32" r="28" fill="#96D9FA"/>
</mask>
<g mask="url(#mask0_646_1659)">
<ellipse cx="22.0807" cy="18.9297" rx="5.26947" ry="6.26471" transform="rotate(-7.90177 22.0807 18.9297)" fill="#A5662B"/>
<ellipse cx="51.0132" cy="20.7502" rx="5.26947" ry="6.26471" transform="rotate(33.5028 51.0132 20.7502)" fill="#A5662B"/>
<rect x="12" y="15" width="48" height="67" rx="24" fill="#A5662B"/>
<ellipse cx="30.2676" cy="36.4608" rx="8.69741" ry="7.82767" transform="rotate(-7.90177 30.2676 36.4608)" fill="#F6D0A1"/>
<ellipse cx="22.171" cy="27.7125" rx="1.44957" ry="1.73948" transform="rotate(4.45339 22.171 27.7125)" fill="white"/>
<ellipse cx="22.1394" cy="28.116" rx="1.44957" ry="1.33479" transform="rotate(4.45339 22.1394 28.116)" fill="#2A1210"/>
<path d="M31.1599 32.0776C31.0581 33.3846 28.7991 35.0713 26.5142 34.8933C24.2292 34.7153 22.7807 32.7772 22.8854 31.4331C23.063 29.1529 24.9807 28.4571 27.2657 28.6351C29.817 29.1664 31.2941 30.3543 31.1599 32.0776Z" fill="#2A1210"/>
<ellipse cx="40.6061" cy="32.5134" rx="1.44957" ry="1.73948" transform="rotate(19.9202 40.6061 32.5134)" fill="white"/>
<ellipse cx="40.4681" cy="32.8939" rx="1.44957" ry="1.33479" transform="rotate(19.9202 40.4681 32.8939)" fill="#2A1210"/>
<path d="M34.7239 36.8102C35.4543 39.4686 33.624 42.2891 30.6359 43.1101C27.6478 43.931 24.6334 42.4416 23.903 39.7832C23.1726 37.1249 25.0117 39.6753 29.1371 38.4498C33.2626 37.2244 33.9935 34.1519 34.7239 36.8102Z" fill="#2A1210"/>
<path d="M33.1561 39.4102C35.1069 39.4102 32.4544 41.743 31.7261 42.1009C30.9273 42.4968 28.4204 43.1579 29.259 41.6378C29.7842 40.6819 32.0174 39.4102 33.1517 39.4102H33.1561Z" fill="#F87B51"/>
</g>
</g>
<defs>
<filter id="filter0_d_646_1659" x="0" y="0" width="72" height="72" filterUnits="userSpaceOnUse" color-interpolation-filters="sRGB">
<feFlood flood-opacity="0" result="BackgroundImageFix"/>
<feColorMatrix in="SourceAlpha" type="matrix" values="0 0 0 0 0 0 0 0 0 0 0 0 0 0 0 0 0 0 127 0" result="hardAlpha"/>
<feOffset dy="4"/>
<feGaussianBlur stdDeviation="2"/>
<feComposite in2="hardAlpha" operator="out"/>
<feColorMatrix type="matrix" values="0 0 0 0 0 0 0 0 0 0 0 0 0 0 0 0 0 0 0.12 0"/>
<feBlend mode="normal" in2="BackgroundImageFix" result="effect1_dropShadow_646_1659"/>
<feBlend mode="normal" in="SourceGraphic" in2="effect1_dropShadow_646_1659" result="shape"/>
</filter>
</defs>
</svg>
