<svg width="64" height="64" viewBox="0 0 64 64" fill="none" xmlns="http://www.w3.org/2000/svg">
<circle cx="32" cy="32" r="32" fill="white"/>
<circle cx="32" cy="32" r="28" fill="#96D9FA"/>
<mask id="mask0_646_1863" style="mask-type:alpha" maskUnits="userSpaceOnUse" x="4" y="4" width="56" height="56">
<circle cx="32" cy="32" r="28" fill="#96D9FA"/>
</mask>
<g mask="url(#mask0_646_1863)">
<ellipse cx="18.0807" cy="18.9297" rx="5.26947" ry="6.26471" transform="rotate(-7.90177 18.0807 18.9297)" fill="#A5662B"/>
<ellipse cx="47.0132" cy="20.7502" rx="5.26947" ry="6.26471" transform="rotate(33.5028 47.0132 20.7502)" fill="#A5662B"/>
<rect x="8" y="15" width="48" height="67" rx="24" fill="#A5662B"/>
<ellipse cx="26.6909" cy="35.9925" rx="8.69741" ry="7.82767" transform="rotate(-7.90177 26.6909 35.9925)" fill="#F6D0A1"/>
<path fill-rule="evenodd" clip-rule="evenodd" d="M31.2051 34.5162C31.3291 34.1557 31.458 33.7813 31.599 33.4338C31.7263 33.1202 32.0531 33.0619 32.3289 33.3037C32.6047 33.5454 32.7251 33.9956 32.5978 34.3092C32.4688 34.627 32.3594 34.9452 32.2423 35.2858C32.181 35.4643 32.1176 35.6489 32.0481 35.8428C31.8525 36.3885 31.6238 36.9616 31.2997 37.5161C30.6427 38.6404 29.6277 39.6314 27.7932 40.2932C24.7896 41.3767 21.7113 39.5959 20.5083 38.5352C20.2329 38.2925 20.1136 37.8421 20.2418 37.5293C20.3701 37.2165 20.6972 37.1598 20.9726 37.4026C21.9607 38.2737 24.6707 39.8491 27.2919 38.9035C28.973 38.297 29.8314 37.4212 30.3711 36.4975C30.6455 36.0279 30.846 35.5317 31.0312 35.0149C31.0886 34.8547 31.1463 34.687 31.2051 34.5162Z" fill="black"/>
<path d="M27.1858 32.0068C27.084 33.3137 24.825 35.0004 22.5401 34.8225C20.2551 34.6445 18.8066 32.7064 18.9113 31.3623C19.0889 29.0821 21.0066 28.3863 23.2916 28.5643C25.8429 29.0956 27.32 30.2835 27.1858 32.0068Z" fill="#2A1210"/>
<path d="M29.7805 38.6956C30.5 43 25.931 43.4557 24.9294 41.5362C23.5528 39.5839 23.5 38.8224 26.5 38C29.5 37.1776 29.4277 36.8895 29.7805 38.6956Z" fill="#F87B51"/>
<path fill-rule="evenodd" clip-rule="evenodd" d="M31.1005 34.2267C31.2544 33.9487 31.4141 33.66 31.5832 33.39C31.7357 33.1464 32.0568 33.0726 32.3005 33.2251C32.5441 33.3776 32.618 33.6988 32.4654 33.9424C32.3108 34.1893 32.1752 34.4347 32.03 34.6973C31.9539 34.8349 31.8752 34.9772 31.7898 35.127C31.5494 35.5485 31.2744 35.9933 30.9091 36.4334C30.1685 37.3258 29.0945 38.1535 27.26 38.8153C24.2564 39.8988 21.4507 38.8738 20.3887 38.2038C20.1456 38.0505 20.0728 37.7291 20.2262 37.486C20.3795 37.2429 20.7009 37.1701 20.944 37.3235C21.8163 37.8737 24.2855 38.7818 26.9068 37.8361C28.5879 37.2297 29.4997 36.5018 30.1082 35.7687C30.4175 35.396 30.6579 35.0106 30.8856 34.6114C30.9561 34.4876 31.0277 34.3583 31.1005 34.2267Z" fill="black"/>
<ellipse cx="18.5806" cy="26.8468" rx="1.44957" ry="1.73948" transform="rotate(4.45339 18.5806 26.8468)" fill="white"/>
<ellipse cx="18.5491" cy="27.2503" rx="1.44957" ry="1.33479" transform="rotate(4.45339 18.5491 27.2503)" fill="#2A1210"/>
<path d="M38 31L36 30.2401L37.8476 29" stroke="#38231C" stroke-linecap="round" stroke-linejoin="round"/>
</g>
</svg>
