<svg width="64" height="64" viewBox="0 0 64 64" fill="none" xmlns="http://www.w3.org/2000/svg">
<circle cx="32" cy="32" r="32" fill="white"/>
<circle cx="32" cy="32" r="28" fill="#96D9FA"/>
<mask id="mask0_646_1727" style="mask-type:alpha" maskUnits="userSpaceOnUse" x="4" y="4" width="56" height="56">
<circle cx="32" cy="32" r="28" fill="#96D9FA"/>
</mask>
<g mask="url(#mask0_646_1727)">
<ellipse cx="18.0807" cy="18.9296" rx="5.26947" ry="6.26471" transform="rotate(-7.90177 18.0807 18.9296)" fill="#A5662B"/>
<ellipse cx="47.0132" cy="20.7502" rx="5.26947" ry="6.26471" transform="rotate(33.5028 47.0132 20.7502)" fill="#A5662B"/>
<rect x="8" y="15" width="48" height="67" rx="24" fill="#A5662B"/>
<ellipse cx="26.6909" cy="35.9925" rx="8.69741" ry="7.82767" transform="rotate(-7.90177 26.6909 35.9925)" fill="#F6D0A1"/>
<path fill-rule="evenodd" clip-rule="evenodd" d="M30.6899 36.8941C30.929 36.6848 31.1772 36.4675 31.4278 36.2709C31.654 36.0935 31.9811 36.133 32.1585 36.3591C32.336 36.5853 32.2964 36.9124 32.0703 37.0899C31.841 37.2697 31.6302 37.4545 31.4045 37.6522C31.2862 37.7558 31.1639 37.863 31.0327 37.9749C30.6636 38.2898 30.254 38.6149 29.761 38.905C28.7614 39.4931 27.4704 39.9072 25.5202 39.9072C22.3271 39.9072 20.0357 37.9908 19.264 37.0002C19.0874 36.7735 19.128 36.4464 19.3548 36.2698C19.5815 36.0932 19.9086 36.1338 20.0852 36.3605C20.719 37.1741 22.7336 38.8663 25.5202 38.8663C27.3073 38.8663 28.412 38.491 29.2332 38.0078C29.6506 37.7622 30.0075 37.4813 30.3572 37.183C30.4655 37.0906 30.5767 36.9932 30.6899 36.8941Z" fill="black"/>
<path d="M27.1858 32.0068C27.084 33.3137 24.825 35.0004 22.5401 34.8225C20.2551 34.6445 18.8066 32.7064 18.9113 31.3623C19.0889 29.0821 21.0066 28.3863 23.2916 28.5643C25.8429 29.0956 27.32 30.2835 27.1858 32.0068Z" fill="#2A1210"/>
<ellipse cx="19.1715" cy="26.7125" rx="1.44957" ry="1.73948" transform="rotate(4.45339 19.1715 26.7125)" fill="white"/>
<ellipse cx="19.1399" cy="27.116" rx="1.44957" ry="1.33479" transform="rotate(4.45339 19.1399 27.116)" fill="#2A1210"/>
<ellipse cx="37.6061" cy="31.5134" rx="1.44957" ry="1.73948" transform="rotate(19.9202 37.6061 31.5134)" fill="white"/>
<ellipse cx="37.4681" cy="31.8939" rx="1.44957" ry="1.33479" transform="rotate(19.9202 37.4681 31.8939)" fill="#2A1210"/>
</g>
</svg>
