<svg width="76" height="24" viewBox="0 0 76 24" fill="none" xmlns="http://www.w3.org/2000/svg">
<path d="M1.183 7.606H4.508C5.474 7.606 6.32567 7.79733 7.063 8.18C7.80033 8.56267 8.37667 9.10633 8.792 9.811C9.212 10.511 9.422 11.3463 9.422 12.317C9.422 13.2737 9.212 14.1043 8.792 14.809C8.37667 15.509 7.80033 16.0503 7.063 16.433C6.32567 16.811 5.474 17 4.508 17H1.183V7.606ZM3.423 9.664V14.956H4.508C5.01667 14.956 5.45533 14.8417 5.824 14.613C6.19733 14.3797 6.48433 14.0647 6.685 13.668C6.89033 13.2713 6.993 12.821 6.993 12.317C6.993 11.7943 6.89033 11.3347 6.685 10.938C6.48433 10.5413 6.19733 10.231 5.824 10.007C5.45533 9.77833 5.01667 9.664 4.508 9.664H3.423ZM13.9908 17V7.606H16.2308V17H13.9908ZM24.9679 17.224C24.1792 17.224 23.4722 17.014 22.8469 16.594C22.2262 16.174 21.7339 15.5953 21.3699 14.858C21.0106 14.116 20.8309 13.2643 20.8309 12.303C20.8309 11.5797 20.9359 10.9193 21.1459 10.322C21.3606 9.72 21.6639 9.202 22.0559 8.768C22.4526 8.32933 22.9239 7.991 23.4699 7.753C24.0206 7.515 24.6319 7.396 25.3039 7.396C26.3212 7.396 27.1496 7.627 27.7889 8.089C28.4282 8.54633 28.8832 9.265 29.1539 10.245L26.7739 10.672C26.6152 10.2847 26.4052 9.979 26.1439 9.755C25.8826 9.531 25.5606 9.419 25.1779 9.419C24.8139 9.419 24.4849 9.53567 24.1909 9.769C23.9016 10.0023 23.6729 10.3337 23.5049 10.763C23.3369 11.1923 23.2529 11.7057 23.2529 12.303C23.2529 12.8957 23.3369 13.409 23.5049 13.843C23.6729 14.2723 23.9016 14.6037 24.1909 14.837C24.4849 15.0703 24.8139 15.187 25.1779 15.187C25.5372 15.187 25.8569 15.1123 26.1369 14.963C26.4216 14.809 26.6432 14.6037 26.8019 14.347C26.9652 14.0857 27.0469 13.7987 27.0469 13.486H27.4389C27.4389 14.2513 27.3479 14.914 27.1659 15.474C26.9839 16.034 26.7109 16.4657 26.3469 16.769C25.9829 17.0723 25.5232 17.224 24.9679 17.224ZM27.3269 17L27.0469 15.068V13.402L25.1779 13.388V12.016H29.1749V17H27.3269ZM34.1647 17V7.606H40.4437V9.545H36.4047V11.351H40.1917V13.297H36.4047V15.04H40.4437V17H34.1647ZM49.086 17.224C48.414 17.224 47.791 17.112 47.217 16.888C46.643 16.6593 46.1763 16.3047 45.817 15.824C45.4576 15.3387 45.2593 14.7087 45.222 13.934H47.434C47.434 14.2187 47.5063 14.4543 47.651 14.641C47.7956 14.8277 47.9916 14.9653 48.239 15.054C48.491 15.1427 48.7686 15.187 49.072 15.187C49.3146 15.187 49.541 15.166 49.751 15.124C49.9656 15.082 50.1383 15.0073 50.269 14.9C50.3996 14.7927 50.465 14.6457 50.465 14.459C50.465 14.2303 50.395 14.06 50.255 13.948C50.1196 13.836 49.8723 13.7077 49.513 13.563L47.469 12.674C46.797 12.3847 46.2743 12.044 45.901 11.652C45.5276 11.26 45.341 10.7257 45.341 10.049C45.341 9.25567 45.663 8.61633 46.307 8.131C46.9556 7.641 47.8423 7.396 48.967 7.396C50.1103 7.396 50.9876 7.66667 51.599 8.208C52.2103 8.74467 52.5533 9.51233 52.628 10.511H50.43C50.374 10.203 50.2363 9.944 50.017 9.734C49.8023 9.524 49.4523 9.419 48.967 9.419C48.617 9.419 48.3346 9.48433 48.12 9.615C47.9053 9.741 47.798 9.89967 47.798 10.091C47.798 10.2683 47.8656 10.4083 48.001 10.511C48.141 10.6137 48.3486 10.7257 48.624 10.847L50.787 11.764C51.5056 12.0767 52.04 12.443 52.39 12.863C52.7446 13.283 52.922 13.787 52.922 14.375C52.922 15.005 52.7703 15.5323 52.467 15.957C52.1683 16.377 51.732 16.6943 51.158 16.909C50.5886 17.119 49.898 17.224 49.086 17.224ZM56.6582 9.545V7.606H64.3932V9.545H61.1522L61.6562 9.041V17H59.4162V9.041L59.9202 9.545H56.6582ZM67.3606 9.545V7.606H75.0956V9.545H71.8546L72.3586 9.041V17H70.1186V9.041L70.6226 9.545H67.3606Z" fill="#38231C"/>
</svg>
