<svg width="74" height="10" viewBox="0 0 74 10" fill="none" xmlns="http://www.w3.org/2000/svg">
<path d="M0.000382915 0.210004H3.32538C4.29138 0.210004 5.14305 0.401337 5.88038 0.784003C6.61772 1.16667 7.19405 1.71034 7.60938 2.415C8.02938 3.115 8.23938 3.95034 8.23938 4.921C8.23938 5.87767 8.02938 6.70834 7.60938 7.413C7.19405 8.113 6.61772 8.65434 5.88038 9.037C5.14305 9.415 4.29138 9.604 3.32538 9.604H0.000382915V0.210004ZM2.24038 2.268V7.56H3.32538C3.83405 7.56 4.27272 7.44567 4.64138 7.217C5.01472 6.98367 5.30172 6.66867 5.50238 6.272C5.70772 5.87534 5.81038 5.425 5.81038 4.921C5.81038 4.39834 5.70772 3.93867 5.50238 3.542C5.30172 3.14534 5.01472 2.835 4.64138 2.611C4.27272 2.38234 3.83405 2.268 3.32538 2.268H2.24038ZM12.8082 9.604V0.210004H15.0482V9.604H12.8082ZM23.7853 9.828C22.9966 9.828 22.2896 9.618 21.6643 9.198C21.0436 8.778 20.5513 8.19934 20.1873 7.462C19.828 6.72 19.6483 5.86834 19.6483 4.907C19.6483 4.18367 19.7533 3.52334 19.9633 2.926C20.178 2.324 20.4813 1.806 20.8733 1.372C21.27 0.933337 21.7413 0.595003 22.2873 0.357003C22.838 0.119003 23.4493 3.21865e-06 24.1213 3.21865e-06C25.1386 3.21865e-06 25.967 0.231003 26.6063 0.693004C27.2456 1.15034 27.7006 1.869 27.9713 2.849L25.5913 3.276C25.4326 2.88867 25.2226 2.583 24.9613 2.359C24.7 2.135 24.378 2.023 23.9953 2.023C23.6313 2.023 23.3023 2.13967 23.0083 2.373C22.719 2.60634 22.4903 2.93767 22.3223 3.367C22.1543 3.79634 22.0703 4.30967 22.0703 4.907C22.0703 5.49967 22.1543 6.013 22.3223 6.447C22.4903 6.87634 22.719 7.20767 23.0083 7.441C23.3023 7.67434 23.6313 7.791 23.9953 7.791C24.3546 7.791 24.6743 7.71634 24.9543 7.567C25.239 7.413 25.4606 7.20767 25.6193 6.951C25.7826 6.68967 25.8643 6.40267 25.8643 6.09H26.2563C26.2563 6.85534 26.1653 7.518 25.9833 8.078C25.8013 8.638 25.5283 9.06967 25.1643 9.373C24.8003 9.67634 24.3406 9.828 23.7853 9.828ZM26.1443 9.604L25.8643 7.672V6.006L23.9953 5.992V4.62H27.9923V9.604H26.1443ZM32.9821 9.604V0.210004H39.2611V2.149H35.2221V3.955H39.0091V5.901H35.2221V7.644H39.2611V9.604H32.9821ZM47.9034 9.828C47.2314 9.828 46.6084 9.716 46.0344 9.492C45.4604 9.26334 44.9937 8.90867 44.6344 8.428C44.275 7.94267 44.0767 7.31267 44.0394 6.538H46.2514C46.2514 6.82267 46.3237 7.05834 46.4684 7.245C46.613 7.43167 46.809 7.56934 47.0564 7.658C47.3084 7.74667 47.586 7.791 47.8894 7.791C48.132 7.791 48.3584 7.77 48.5684 7.728C48.783 7.686 48.9557 7.61134 49.0864 7.504C49.217 7.39667 49.2824 7.24967 49.2824 7.063C49.2824 6.83434 49.2124 6.664 49.0724 6.552C48.937 6.44 48.6897 6.31167 48.3304 6.167L46.2864 5.278C45.6144 4.98867 45.0917 4.648 44.7184 4.256C44.345 3.864 44.1584 3.32967 44.1584 2.653C44.1584 1.85967 44.4804 1.22034 45.1244 0.735003C45.773 0.245003 46.6597 3.21865e-06 47.7844 3.21865e-06C48.9277 3.21865e-06 49.805 0.27067 50.4164 0.812004C51.0277 1.34867 51.3707 2.11634 51.4454 3.115H49.2474C49.1914 2.807 49.0537 2.548 48.8344 2.338C48.6197 2.128 48.2697 2.023 47.7844 2.023C47.4344 2.023 47.152 2.08834 46.9374 2.219C46.7227 2.345 46.6154 2.50367 46.6154 2.695C46.6154 2.87234 46.683 3.01234 46.8184 3.115C46.9584 3.21767 47.166 3.32967 47.4414 3.451L49.6044 4.368C50.323 4.68067 50.8574 5.047 51.2074 5.467C51.562 5.887 51.7394 6.391 51.7394 6.979C51.7394 7.609 51.5877 8.13634 51.2844 8.561C50.9857 8.981 50.5494 9.29834 49.9754 9.513C49.406 9.723 48.7154 9.828 47.9034 9.828ZM55.4756 2.149V0.210004H63.2106V2.149H59.9696L60.4736 1.645V9.604H58.2336V1.645L58.7376 2.149H55.4756ZM66.1779 2.149V0.210004H73.9129V2.149H70.6719L71.1759 1.645V9.604H68.9359V1.645L69.4399 2.149H66.1779Z" fill="#38231C"/>
</svg>
