<svg width="69" height="24" viewBox="0 0 69 24" fill="none" xmlns="http://www.w3.org/2000/svg">
<path d="M1.183 17V7.606H7.308V9.545H3.423V11.386H6.902V13.297H3.423V17H1.183ZM11.9534 17V7.606H18.2324V9.545H14.1934V11.351H17.9804V13.297H14.1934V15.04H18.2324V17H11.9534ZM22.2406 9.545V7.606H29.9756V9.545H26.7346L27.2386 9.041V17H24.9986V9.041L25.5026 9.545H22.2406ZM37.612 17.224C36.7907 17.224 36.0673 17.0397 35.442 16.671C34.8213 16.3023 34.336 15.754 33.986 15.026C33.636 14.298 33.461 13.395 33.461 12.317C33.461 11.2343 33.6337 10.329 33.979 9.601C34.329 8.873 34.8167 8.32467 35.442 7.956C36.0673 7.58267 36.7907 7.396 37.612 7.396C38.7973 7.396 39.7003 7.676 40.321 8.236C40.9417 8.796 41.3103 9.52167 41.427 10.413L39.047 10.826C38.9397 10.4247 38.7693 10.0933 38.536 9.832C38.3073 9.566 37.9993 9.433 37.612 9.433C37.2667 9.433 36.961 9.538 36.695 9.748C36.4337 9.95333 36.2307 10.2683 36.086 10.693C35.9413 11.1177 35.869 11.659 35.869 12.317C35.869 12.961 35.9437 13.4953 36.093 13.92C36.2423 14.34 36.4477 14.6527 36.709 14.858C36.975 15.0633 37.276 15.166 37.612 15.166C38.0927 15.166 38.452 15.04 38.69 14.788C38.928 14.5313 39.047 14.221 39.047 13.857H41.413C41.413 14.5803 41.266 15.194 40.972 15.698C40.6827 16.1973 40.2557 16.5777 39.691 16.839C39.1263 17.0957 38.4333 17.224 37.612 17.224ZM46.0158 7.606H48.2558V11.309H51.8048V7.606H54.0658V17H51.8048V13.283H48.2558V17H46.0158V7.606ZM59.2338 7.606H61.4738V11.309H65.0228V7.606H67.2838V17H65.0228V13.283H61.4738V17H59.2338V7.606Z" fill="#38231C"/>
</svg>
