<svg width="142" height="28" viewBox="0 0 142 28" fill="none" xmlns="http://www.w3.org/2000/svg">
<circle cx="13.7143" cy="13.7143" r="13.7143" fill="white"/>
<circle cx="13.7144" cy="13.7143" r="12" fill="#96D9FA"/>
<mask id="mask0_646_1927" style="mask-type:alpha" maskUnits="userSpaceOnUse" x="1" y="1" width="25" height="25">
<circle cx="13.7144" cy="13.7143" r="12" fill="#96D9FA"/>
</mask>
<g mask="url(#mask0_646_1927)">
<ellipse cx="7.74907" cy="8.11271" rx="2.25834" ry="2.68488" transform="rotate(-7.90177 7.74907 8.11271)" fill="#A5662B"/>
<ellipse cx="20.1487" cy="8.89296" rx="2.25834" ry="2.68488" transform="rotate(33.5028 20.1487 8.89296)" fill="#A5662B"/>
<rect x="3.42871" y="6.42856" width="20.5714" height="28.7143" rx="10.2857" fill="#A5662B"/>
<ellipse cx="11.4389" cy="15.4254" rx="3.72746" ry="3.35472" transform="rotate(-7.90177 11.4389 15.4254)" fill="#F6D0A1"/>
<path fill-rule="evenodd" clip-rule="evenodd" d="M13.1531 15.8118C13.2556 15.7221 13.3619 15.6289 13.4693 15.5447C13.5663 15.4687 13.7065 15.4856 13.7825 15.5825C13.8585 15.6794 13.8416 15.8196 13.7447 15.8957C13.6464 15.9727 13.5561 16.0519 13.4593 16.1367C13.4087 16.1811 13.3562 16.227 13.3 16.275C13.1418 16.4099 12.9663 16.5493 12.755 16.6736C12.3266 16.9256 11.7733 17.1031 10.9375 17.1031C9.56903 17.1031 8.58702 16.2818 8.2563 15.8573C8.18059 15.7601 8.19801 15.6199 8.29519 15.5442C8.39237 15.4685 8.53252 15.4859 8.60822 15.5831C8.87985 15.9318 9.74323 16.657 10.9375 16.657C11.7034 16.657 12.1768 16.4962 12.5288 16.2891C12.7077 16.1838 12.8607 16.0634 13.0105 15.9356C13.0569 15.896 13.1046 15.8543 13.1531 15.8118Z" fill="black"/>
<path d="M11.6511 13.7172C11.6074 14.2773 10.6393 15.0002 9.66003 14.9239C8.68077 14.8476 8.05997 14.017 8.10483 13.441C8.18094 12.4638 9.00283 12.1656 9.98209 12.2418C11.0755 12.4695 11.7086 12.9786 11.6511 13.7172Z" fill="#2A1210"/>
<ellipse cx="8.21627" cy="11.4482" rx="0.621244" ry="0.745493" transform="rotate(4.45339 8.21627 11.4482)" fill="white"/>
<ellipse cx="8.20288" cy="11.6211" rx="0.621244" ry="0.572054" transform="rotate(4.45339 8.20288 11.6211)" fill="#2A1210"/>
<ellipse cx="16.1167" cy="13.5058" rx="0.621244" ry="0.745493" transform="rotate(19.9202 16.1167 13.5058)" fill="white"/>
<ellipse cx="16.0576" cy="13.6688" rx="0.621244" ry="0.572054" transform="rotate(19.9202 16.0576 13.6688)" fill="#2A1210"/>
</g>
<path d="M33.8344 9.56429V6.79429H44.8844V9.56429H40.2544L40.9744 8.84429V20.2143H37.7744V8.84429L38.4944 9.56429H33.8344ZM53.2134 20.2143V14.4743C53.2134 13.9543 53.0868 13.571 52.8334 13.3243C52.5801 13.071 52.2734 12.9443 51.9134 12.9443C51.5468 12.9443 51.2101 13.0476 50.9034 13.2543C50.5968 13.461 50.3501 13.7943 50.1634 14.2543C49.9834 14.7076 49.8934 15.311 49.8934 16.0643H48.9234C48.9234 14.651 49.0901 13.501 49.4234 12.6143C49.7634 11.7276 50.2234 11.0776 50.8034 10.6643C51.3901 10.251 52.0534 10.0443 52.7934 10.0443C53.6401 10.0443 54.3301 10.2343 54.8634 10.6143C55.4034 10.9943 55.8001 11.5176 56.0534 12.1843C56.3068 12.851 56.4334 13.6143 56.4334 14.4743V20.2143H53.2134ZM46.6934 20.2143V6.41429H49.8934V20.2143H46.6934ZM59.5645 20.2143V10.3043H62.7645V20.2143H59.5645ZM62.0845 16.0143C62.0845 14.6743 62.2545 13.5743 62.5945 12.7143C62.9345 11.8543 63.3645 11.2176 63.8845 10.8043C64.4045 10.391 64.9345 10.1843 65.4745 10.1843C65.5812 10.1843 65.6878 10.191 65.7945 10.2043C65.9012 10.211 66.0012 10.2243 66.0945 10.2443L66.1245 13.4643C65.9578 13.4443 65.7878 13.431 65.6145 13.4243C65.4412 13.411 65.2778 13.4043 65.1245 13.4043C64.6578 13.4043 64.2445 13.491 63.8845 13.6643C63.5312 13.8376 63.2545 14.1143 63.0545 14.4943C62.8612 14.8743 62.7645 15.381 62.7645 16.0143H62.0845ZM72.0006 20.5343C71.1739 20.5343 70.3973 20.321 69.6706 19.8943C68.9439 19.4676 68.3539 18.8576 67.9006 18.0643C67.4539 17.271 67.2306 16.331 67.2306 15.2443C67.2306 14.1576 67.4539 13.2276 67.9006 12.4543C68.3473 11.6743 68.9339 11.0776 69.6606 10.6643C70.3873 10.251 71.1673 10.0443 72.0006 10.0443C72.8273 10.0443 73.5473 10.211 74.1606 10.5443C74.7739 10.871 75.2673 11.3143 75.6406 11.8743C76.0206 12.4343 76.2673 13.0676 76.3806 13.7743C76.5006 14.4743 76.4773 15.1976 76.3106 15.9443H69.7606V14.3243H73.9706L73.5106 14.6243C73.5306 14.391 73.5206 14.1543 73.4806 13.9143C73.4473 13.6743 73.3773 13.4543 73.2706 13.2543C73.1639 13.0476 73.0106 12.8843 72.8106 12.7643C72.6173 12.6376 72.3673 12.5743 72.0606 12.5743C71.7206 12.5743 71.4239 12.6576 71.1706 12.8243C70.9239 12.9843 70.7306 13.221 70.5906 13.5343C70.4573 13.841 70.3906 14.2176 70.3906 14.6643V15.9243C70.3906 16.3443 70.4506 16.7076 70.5706 17.0143C70.6906 17.321 70.8673 17.561 71.1006 17.7343C71.3406 17.901 71.6406 17.9843 72.0006 17.9843C72.2939 17.9843 72.5506 17.9243 72.7706 17.8043C72.9906 17.6843 73.1439 17.4943 73.2306 17.2343H76.4106C76.3106 17.8476 76.0639 18.4043 75.6706 18.9043C75.2839 19.4043 74.7773 19.801 74.1506 20.0943C73.5306 20.3876 72.8139 20.5343 72.0006 20.5343ZM85.4776 20.2143L85.0676 17.5843V13.8943C85.0676 13.401 84.9776 13.0176 84.7976 12.7443C84.6176 12.471 84.2343 12.3343 83.6476 12.3343C83.301 12.3343 83.0176 12.3876 82.7976 12.4943C82.5843 12.5943 82.4243 12.731 82.3176 12.9043C82.2176 13.071 82.1676 13.2543 82.1676 13.4543H78.7076C78.7076 12.681 78.891 12.0443 79.2576 11.5443C79.6243 11.0376 80.1743 10.661 80.9076 10.4143C81.641 10.1676 82.5543 10.0443 83.6476 10.0443C84.601 10.0443 85.421 10.191 86.1076 10.4843C86.801 10.7776 87.3343 11.2176 87.7076 11.8043C88.081 12.391 88.2676 13.1276 88.2676 14.0143V20.2143H85.4776ZM82.3776 20.5343C81.4976 20.5343 80.7543 20.3876 80.1476 20.0943C79.5476 19.7943 79.0943 19.391 78.7876 18.8843C78.481 18.3776 78.3276 17.8176 78.3276 17.2043C78.3276 16.6243 78.4876 16.1243 78.8076 15.7043C79.1276 15.2776 79.601 14.9476 80.2276 14.7143C80.861 14.481 81.6376 14.3643 82.5576 14.3643C83.1176 14.3643 83.611 14.3943 84.0376 14.4543C84.471 14.5143 84.9143 14.5876 85.3676 14.6743V16.4743C85.0343 16.401 84.6876 16.3443 84.3276 16.3043C83.9743 16.2643 83.6276 16.2443 83.2876 16.2443C82.8143 16.2443 82.4376 16.321 82.1576 16.4743C81.8843 16.621 81.7476 16.8643 81.7476 17.2043C81.7476 17.451 81.871 17.6676 82.1176 17.8543C82.3643 18.0343 82.7543 18.1243 83.2876 18.1243C83.741 18.1243 84.0976 18.0343 84.3576 17.8543C84.6176 17.6743 84.801 17.4476 84.9076 17.1743C85.0143 16.901 85.0676 16.631 85.0676 16.3643H85.8176C85.8176 17.1243 85.6976 17.821 85.4576 18.4543C85.2176 19.0876 84.8443 19.5943 84.3376 19.9743C83.831 20.3476 83.1776 20.5343 82.3776 20.5343ZM95.1895 20.5343C94.3362 20.5343 93.5595 20.3143 92.8595 19.8743C92.1662 19.4276 91.6162 18.8076 91.2095 18.0143C90.8028 17.2143 90.5995 16.2876 90.5995 15.2343C90.5995 14.1943 90.7928 13.2876 91.1795 12.5143C91.5662 11.7343 92.0895 11.1276 92.7495 10.6943C93.4095 10.261 94.1495 10.0443 94.9695 10.0443C95.7095 10.0443 96.3395 10.221 96.8595 10.5743C97.3795 10.921 97.7728 11.4476 98.0395 12.1543C98.3128 12.8543 98.4495 13.7343 98.4495 14.7943H97.5595C97.5595 14.421 97.4762 14.0976 97.3095 13.8243C97.1495 13.5443 96.9362 13.3276 96.6695 13.1743C96.4028 13.021 96.1062 12.9443 95.7795 12.9443C95.3595 12.9443 94.9995 13.0443 94.6995 13.2443C94.4062 13.4443 94.1828 13.7176 94.0295 14.0643C93.8762 14.411 93.7995 14.801 93.7995 15.2343C93.7995 15.6876 93.8762 16.0943 94.0295 16.4543C94.1895 16.8143 94.4162 17.0976 94.7095 17.3043C95.0028 17.511 95.3462 17.6143 95.7395 17.6143C96.0528 17.6143 96.3462 17.5276 96.6195 17.3543C96.8995 17.1743 97.1262 16.9376 97.2995 16.6443C97.4728 16.351 97.5595 16.031 97.5595 15.6843H98.4495C98.4495 16.7976 98.2962 17.7143 97.9895 18.4343C97.6895 19.1476 97.2895 19.6776 96.7895 20.0243C96.2962 20.3643 95.7628 20.5343 95.1895 20.5343ZM98.1895 20.2143L97.5595 17.6443V6.41429H100.8V20.2143H98.1895ZM109.274 20.5343C108.101 20.5343 107.067 20.271 106.174 19.7443C105.287 19.2176 104.594 18.4343 104.094 17.3943C103.594 16.3543 103.344 15.0643 103.344 13.5243C103.344 11.9776 103.591 10.6843 104.084 9.64429C104.584 8.60429 105.281 7.82096 106.174 7.29429C107.067 6.76096 108.101 6.49429 109.274 6.49429C110.967 6.49429 112.257 6.89429 113.144 7.69429C114.031 8.49429 114.557 9.53096 114.724 10.8043L111.324 11.3943C111.171 10.821 110.927 10.3476 110.594 9.97429C110.267 9.59429 109.827 9.40429 109.274 9.40429C108.781 9.40429 108.344 9.55429 107.964 9.85429C107.591 10.1476 107.301 10.5976 107.094 11.2043C106.887 11.811 106.784 12.5843 106.784 13.5243C106.784 14.4443 106.891 15.2076 107.104 15.8143C107.317 16.4143 107.611 16.861 107.984 17.1543C108.364 17.4476 108.794 17.5943 109.274 17.5943C109.961 17.5943 110.474 17.4143 110.814 17.0543C111.154 16.6876 111.324 16.2443 111.324 15.7243H114.704C114.704 16.7576 114.494 17.6343 114.074 18.3543C113.661 19.0676 113.051 19.611 112.244 19.9843C111.437 20.351 110.447 20.5343 109.274 20.5343ZM123.699 10.3043H126.899V20.2143H123.699V10.3043ZM117.169 10.3043H120.369V16.2643C120.369 16.7176 120.483 17.0543 120.709 17.2743C120.943 17.4876 121.239 17.5943 121.599 17.5943C121.926 17.5943 122.249 17.5143 122.569 17.3543C122.896 17.1943 123.166 16.921 123.379 16.5343C123.593 16.1476 123.699 15.611 123.699 14.9243H124.399C124.399 16.231 124.249 17.2876 123.949 18.0943C123.649 18.8943 123.239 19.4776 122.719 19.8443C122.206 20.211 121.623 20.3943 120.969 20.3943C120.309 20.3943 119.689 20.281 119.109 20.0543C118.529 19.8276 118.059 19.441 117.699 18.8943C117.346 18.3476 117.169 17.5943 117.169 16.6343V10.3043ZM135.838 20.5343C135.271 20.5343 134.741 20.3643 134.248 20.0243C133.761 19.6776 133.368 19.1476 133.068 18.4343C132.774 17.7143 132.628 16.7976 132.628 15.6843H133.468C133.468 16.031 133.558 16.351 133.738 16.6443C133.924 16.9376 134.158 17.1743 134.438 17.3543C134.724 17.5276 135.014 17.6143 135.308 17.6143C135.714 17.6143 136.061 17.511 136.348 17.3043C136.641 17.0976 136.868 16.8143 137.028 16.4543C137.188 16.0943 137.268 15.6876 137.268 15.2343C137.268 14.801 137.188 14.411 137.028 14.0643C136.874 13.7176 136.651 13.4443 136.358 13.2443C136.064 13.0443 135.708 12.9443 135.288 12.9443C134.961 12.9443 134.658 13.021 134.378 13.1743C134.104 13.3276 133.884 13.5443 133.718 13.8243C133.551 14.0976 133.468 14.421 133.468 14.7943H132.628C132.628 13.7343 132.761 12.8543 133.028 12.1543C133.301 11.4476 133.694 10.921 134.208 10.5743C134.728 10.221 135.358 10.0443 136.098 10.0443C136.924 10.0443 137.664 10.261 138.318 10.6943C138.978 11.1276 139.501 11.7343 139.888 12.5143C140.274 13.2876 140.468 14.1943 140.468 15.2343C140.468 16.2876 140.261 17.2143 139.848 18.0143C139.441 18.8076 138.888 19.4276 138.188 19.8743C137.494 20.3143 136.711 20.5343 135.838 20.5343ZM130.268 20.2143V6.41429H133.468V17.6443L132.268 20.2143H130.268Z" fill="#F4C68E"/>
</svg>
