<svg width="256" height="256" viewBox="0 0 256 256" fill="none" xmlns="http://www.w3.org/2000/svg">
<circle cx="128.29" cy="128.29" r="126.045" fill="#96D9FA"/>
<mask id="mask0_2026_496" style="mask-type:alpha" maskUnits="userSpaceOnUse" x="2" y="2" width="253" height="253">
<circle cx="128.29" cy="128.29" r="126.045" fill="#D9D9D9"/>
</mask>
<g mask="url(#mask0_2026_496)">
<path d="M17.0933 157.242C6.35946 189.021 23.8668 232.025 33.9621 249.554C38.9241 256.077 51.8599 291.423 70.7859 295.287C94.4435 300.116 177.915 293.017 189.83 295.287C211.759 299.464 251.44 290.992 251.44 207.57C251.44 138.981 220.131 71.896 146.631 67.5971C74.7463 63.3926 39.3816 91.255 17.0933 157.242Z" fill="#A5662B"/>
<ellipse cx="95.5239" cy="170.65" rx="40.1805" ry="36.1625" transform="rotate(-7.90177 95.5239 170.65)" fill="#F6D0A1"/>
<ellipse cx="58.119" cy="130.234" rx="6.69676" ry="8.03611" transform="rotate(4.45339 58.119 130.234)" fill="white"/>
<ellipse cx="57.9741" cy="132.098" rx="6.69676" ry="6.16651" transform="rotate(4.45339 57.9741 132.098)" fill="#2A1210"/>
<path d="M99.6466 150.402C99.1763 156.44 88.7402 164.232 78.1842 163.41C67.6281 162.588 60.9362 153.634 61.4198 147.425C62.2402 136.89 71.0998 133.676 81.6559 134.498C93.4428 136.953 100.267 142.441 99.6466 150.402Z" fill="#2A1210"/>
<ellipse cx="143.286" cy="152.414" rx="6.69676" ry="8.03611" transform="rotate(19.9202 143.286 152.414)" fill="white"/>
<ellipse cx="142.649" cy="154.172" rx="6.69676" ry="6.16651" transform="rotate(19.9202 142.649 154.172)" fill="#2A1210"/>
<path d="M121.426 171.168C125.101 184.545 115.891 198.739 100.854 202.87C85.8169 207.002 70.6476 199.506 66.9722 186.129C63.2968 172.751 72.5512 185.586 93.3116 179.419C114.072 173.252 117.75 157.791 121.426 171.168Z" fill="#2A1210"/>
<path d="M113.535 184.252C123.352 184.252 110.004 195.991 106.339 197.792C102.319 199.784 89.7041 203.111 93.924 195.461C96.567 190.651 107.805 184.252 113.513 184.252H113.535Z" fill="#F87B51"/>
<ellipse cx="64.7064" cy="83.1828" rx="24.344" ry="28.9419" transform="rotate(-7.90177 64.7064 83.1828)" fill="#A5662B"/>
<ellipse cx="202.208" cy="86.9739" rx="24.344" ry="28.9419" transform="rotate(33.5028 202.208 86.9739)" fill="#A5662B"/>
</g>
<path d="M128.291 5.61377C196.043 5.6139 250.966 60.5384 250.966 128.291C250.966 196.043 196.043 250.966 128.291 250.966C60.5384 250.966 5.6139 196.043 5.61377 128.291C5.61377 60.5383 60.5383 5.61377 128.291 5.61377Z" stroke="white" stroke-width="6.73684"/>
</svg>
